<svg id="Слой_1" data-name="Слой 1" xmlns="http://www.w3.org/2000/svg" xmlns:xlink="http://www.w3.org/1999/xlink" viewBox="0 0 30.75 24.28">
  <defs>
    <style>
      .cls-1, .cls-10, .cls-2, .cls-3, .cls-4, .cls-5, .cls-6, .cls-7, .cls-8, .cls-9 {
        stroke-miterlimit: 10;
      }

      .cls-1, .cls-10, .cls-4, .cls-5, .cls-6, .cls-7, .cls-8, .cls-9 {
        stroke-width: 0.75px;
      }

      .cls-1 {
        fill: url(#Безымянный_градиент_70);
        stroke: url(#Безымянный_градиент_70-2);
      }

      .cls-2, .cls-3 {
        stroke: #0abe69;
        stroke-width: 0.25px;
      }

      .cls-2 {
        fill: url(#Безымянный_градиент_52);
      }

      .cls-3 {
        fill: url(#Безымянный_градиент_52-2);
      }

      .cls-4 {
        fill: url(#Безымянный_градиент_26);
        stroke: url(#Безымянный_градиент_26-2);
      }

      .cls-5 {
        fill: url(#Безымянный_градиент_26-3);
        stroke: url(#Безымянный_градиент_26-4);
      }

      .cls-6 {
        fill: url(#Безымянный_градиент_67);
        stroke: url(#Безымянный_градиент_63);
      }

      .cls-7 {
        fill: url(#Безымянный_градиент_26-5);
        stroke: url(#Безымянный_градиент_26-5);
      }

      .cls-8 {
        fill: url(#Безымянный_градиент_26-7);
        stroke: url(#Безымянный_градиент_26-7);
      }

      .cls-9 {
        fill: url(#Безымянный_градиент_26-9);
        stroke: url(#Безымянный_градиент_26-9);
      }

      .cls-10 {
        fill: url(#Безымянный_градиент_26-11);
        stroke: url(#Безымянный_градиент_26-11);
      }
    </style>
    <linearGradient id="Безымянный_градиент_70" data-name="Безымянный градиент 70" x1="-9.17" y1="119.11" x2="-33.45" y2="104.21" gradientTransform="matrix(1, -0.06, 0.04, 0.89, 12.57, -94.34)" gradientUnits="userSpaceOnUse">
      <stop offset="0" stop-color="#2c2c36"/>
      <stop offset="1" stop-color="#50191e"/>
    </linearGradient>
    <linearGradient id="Безымянный_градиент_70-2" x1="-14.23" y1="124.97" x2="14.99" y2="124.97" xlink:href="#Безымянный_градиент_70"/>
    <linearGradient id="Безымянный_градиент_52" data-name="Безымянный градиент 52" x1="8.22" y1="2.56" x2="25.69" y2="2.56" gradientUnits="userSpaceOnUse">
      <stop offset="0" stop-color="#2c2c36"/>
      <stop offset="1" stop-color="#0abe69"/>
    </linearGradient>
    <linearGradient id="Безымянный_градиент_52-2" x1="4" y1="2.96" x2="21.4" y2="2.96" xlink:href="#Безымянный_градиент_52"/>
    <linearGradient id="Безымянный_градиент_26" data-name="Безымянный градиент 26" x1="30.38" y1="14.45" x2="0.37" y2="14.45" gradientUnits="userSpaceOnUse">
      <stop offset="0" stop-color="#50191e"/>
      <stop offset="1" stop-color="#2c2c36"/>
    </linearGradient>
    <linearGradient id="Безымянный_градиент_26-2" x1="0" y1="14.45" x2="30.75" y2="14.45" xlink:href="#Безымянный_градиент_26"/>
    <linearGradient id="Безымянный_градиент_26-3" x1="31.96" y1="18.05" x2="17.63" y2="18.05" xlink:href="#Безымянный_градиент_26"/>
    <linearGradient id="Безымянный_градиент_26-4" x1="17.25" y1="18.05" x2="32.34" y2="18.05" xlink:href="#Безымянный_градиент_26"/>
    <radialGradient id="Безымянный_градиент_67" data-name="Безымянный градиент 67" cx="20.7" cy="14.22" r="2.71" gradientTransform="matrix(1, 0, 0, 1, 0, 0)" xlink:href="#Безымянный_градиент_70"/>
    <linearGradient id="Безымянный_градиент_63" data-name="Безымянный градиент 63" x1="17.52" y1="14.22" x2="23.88" y2="14.22" gradientUnits="userSpaceOnUse">
      <stop offset="0" stop-color="#50191e"/>
      <stop offset="1" stop-color="#2e2b35"/>
    </linearGradient>
    <linearGradient id="Безымянный_градиент_26-5" x1="25.34" y1="6.94" x2="26.65" y2="6.94" xlink:href="#Безымянный_градиент_26"/>
    <linearGradient id="Безымянный_градиент_26-7" x1="18.17" y1="6.94" x2="19.48" y2="6.94" xlink:href="#Безымянный_градиент_26"/>
    <linearGradient id="Безымянный_градиент_26-9" x1="11.56" y1="6.94" x2="12.87" y2="6.94" xlink:href="#Безымянный_градиент_26"/>
    <linearGradient id="Безымянный_градиент_26-11" x1="5.35" y1="6.94" x2="6.66" y2="6.94" xlink:href="#Безымянный_градиент_26"/>
  </defs>
  <title>Funds</title>
  <path class="cls-1" d="M30.66,22.65l-24.76,3a1.4,1.4,0,0,1-1.54-1.28L3.05,11.62A1.47,1.47,0,0,1,4.29,10L29.05,7a1.39,1.39,0,0,1,1.54,1.27L31.9,21A1.47,1.47,0,0,1,30.66,22.65Z" transform="translate(-1.62 -3.93)"/>
  <polygon class="cls-2" points="8.79 0.16 8.22 4.62 25.69 4.96 8.79 0.16"/>
  <polygon class="cls-3" points="4.61 0.97 4 4.92 21.4 4.96 4.61 0.97"/>
  <rect class="cls-4" x="0.38" y="5.01" width="30" height="18.9" rx="5" ry="5"/>
  <path class="cls-5" d="M32,14H19.71a2,2,0,0,0-2.08,1.79v4.56a1.94,1.94,0,0,0,2.08,1.78H32Z" transform="translate(-1.62 -3.93)"/>
  <ellipse class="cls-6" cx="20.7" cy="14.22" rx="2.81" ry="2.6"/>
  <line class="cls-7" x1="26.65" y1="6.94" x2="25.34" y2="6.94"/>
  <line class="cls-8" x1="19.48" y1="6.94" x2="18.17" y2="6.94"/>
  <line class="cls-9" x1="12.87" y1="6.94" x2="11.56" y2="6.94"/>
  <line class="cls-10" x1="6.66" y1="6.94" x2="5.35" y2="6.94"/>
</svg>
