<?xml version="1.0" encoding="utf-8"?>
<!-- Generator: Adobe Illustrator 22.0.1, SVG Export Plug-In . SVG Version: 6.00 Build 0)  -->
<svg version="1.1" id="Слой_1" xmlns="http://www.w3.org/2000/svg" xmlns:xlink="http://www.w3.org/1999/xlink" x="0px" y="0px"
	 viewBox="0 0 34 34" style="enable-background:new 0 0 34 34;" xml:space="preserve">
<style type="text/css">
	.st0{fill:url(#SVGID_1_);}
	.st1{fill:url(#SVGID_2_);}
	.st2{fill:url(#SVGID_3_);}
	.st3{fill:url(#SVGID_4_);}
</style>
<linearGradient id="SVGID_1_" gradientUnits="userSpaceOnUse" x1="1.9122" y1="6.9455" x2="37.7161" y2="6.9455">
	<stop  offset="0" style="stop-color:#FF7300"/>
	<stop  offset="0.1859" style="stop-color:#FD7900"/>
	<stop  offset="0.4403" style="stop-color:#F88B00"/>
	<stop  offset="0.733" style="stop-color:#F0A700"/>
	<stop  offset="1" style="stop-color:#E6C800"/>
</linearGradient>
<path class="st0" d="M32.1,6.9c-2.7,2.8-6.1,4.6-9.6,5.6c-3.6,1-7.4,1-11,0C8.9,9.9,5.7,8,1.9,6.9C6.1,2.7,11.5,0.6,17,0.6
	C22.5,0.6,27.9,2.7,32.1,6.9z"/>
<linearGradient id="SVGID_2_" gradientUnits="userSpaceOnUse" x1="12.2554" y1="17.2328" x2="21.7445" y2="17.2328">
	<stop  offset="0" style="stop-color:#FF7300"/>
	<stop  offset="0.1859" style="stop-color:#FD7900"/>
	<stop  offset="0.4403" style="stop-color:#F88B00"/>
	<stop  offset="0.733" style="stop-color:#F0A700"/>
	<stop  offset="1" style="stop-color:#E6C800"/>
</linearGradient>
<path class="st1" d="M17,14.7L12.3,13c1.7,1.7,4.3,2.8,4.3,2.8v4.2l0.5,1.4l0.5-1.4v-4.2c0,0,2.6-1.1,4.3-2.8L17,14.7z"/>
<linearGradient id="SVGID_3_" gradientUnits="userSpaceOnUse" x1="32.0599" y1="8.2166" x2="14.1212" y2="36.7306">
	<stop  offset="0" style="stop-color:#FF7300"/>
	<stop  offset="0.1859" style="stop-color:#FD7900"/>
	<stop  offset="0.4403" style="stop-color:#F88B00"/>
	<stop  offset="0.733" style="stop-color:#F0A700"/>
	<stop  offset="1" style="stop-color:#E6C800"/>
</linearGradient>
<path class="st2" d="M32.1,7L32.1,7L32.1,7c-2.8,2.8-6.1,4.6-9.6,5.6c-2.6,2.7-4.5,6-5.5,9.7c-0.5,1.8-0.7,3.7-0.7,5.6
	c0,1.8,0.2,3.7,0.7,5.6v0l0,0C28.4,30.3,35.1,18.5,32.1,7z"/>
<linearGradient id="SVGID_4_" gradientUnits="userSpaceOnUse" x1="17.0776" y1="33.1836" x2="-0.5674" y2="3.0342">
	<stop  offset="0" style="stop-color:#FF7300"/>
	<stop  offset="0.1859" style="stop-color:#FD7900"/>
	<stop  offset="0.4403" style="stop-color:#F88B00"/>
	<stop  offset="0.733" style="stop-color:#F0A700"/>
	<stop  offset="1" style="stop-color:#E6C800"/>
</linearGradient>
<path class="st3" d="M17,22.2c-1-3.6-2.9-7-5.5-9.7C8.9,9.9,5.7,8,1.9,6.9l0,0l0,0c-3,11.5,3.7,23.3,15.1,26.4v0
	c-0.5-1.9-0.7-3.7-0.7-5.6C16.3,25.9,16.5,24,17,22.2z"/>
</svg>
