<svg id="Слой_1" data-name="Слой 1" xmlns="http://www.w3.org/2000/svg" xmlns:xlink="http://www.w3.org/1999/xlink" viewBox="0 0 30.05 30.05">
  <defs>
    <style>
      .cls-1 {
        stroke: #3c3c46;
        stroke-miterlimit: 10;
        stroke-width: 0.05px;
        fill: url(#Безымянный_градиент_35);
      }
    </style>
    <radialGradient id="Безымянный_градиент_35" data-name="Безымянный градиент 35" cx="17" cy="17" r="15" gradientUnits="userSpaceOnUse">
      <stop offset="0" stop-color="#2c2c36"/>
      <stop offset="1" stop-color="#50505a"/>
    </radialGradient>
  </defs>
  <title>Setting</title>
  <path class="cls-1" d="M26.57,20.89A4.18,4.18,0,0,1,31.9,18.7a14.7,14.7,0,0,0,0-3.75,4.55,4.55,0,0,1-3.09.15,3.84,3.84,0,0,1-2.33-5.49,4.62,4.62,0,0,1,2.18-2.1,14.69,14.69,0,0,0-2.43-2.36s0,0,0,.06a4.18,4.18,0,0,1-5.38,2.46,4.19,4.19,0,0,1-2.13-5.51l0-.06a14.65,14.65,0,0,0-4,.07,4.64,4.64,0,0,1,.28,3A3.77,3.77,0,0,1,9.45,7.63a4.92,4.92,0,0,1-2.11-2.1A15.45,15.45,0,0,0,5.1,7.86a4.14,4.14,0,0,1,1.8,5,4.14,4.14,0,0,1-4.8,2.35,15.36,15.36,0,0,0,0,3.32,4.89,4.89,0,0,1,3,.08,3.79,3.79,0,0,1,2.18,5.59,4.46,4.46,0,0,1-2.2,1.85,15.39,15.39,0,0,0,2.75,2.78A4.18,4.18,0,0,1,13,26.6a4.19,4.19,0,0,1,2.29,5.3,15,15,0,0,0,3.41,0,4.55,4.55,0,0,1-.1-3,3.84,3.84,0,0,1,5.5-2.31,4.54,4.54,0,0,1,2.1,2.27,14.77,14.77,0,0,0,2.65-2.65A4.19,4.19,0,0,1,26.57,20.89ZM14.82,22.37a5.61,5.61,0,1,1,7.31-3.09A5.61,5.61,0,0,1,14.82,22.37Z" transform="translate(-1.97 -1.97)"/>
</svg>
