<svg id="Слой_1" data-name="Слой 1" xmlns="http://www.w3.org/2000/svg" xmlns:xlink="http://www.w3.org/1999/xlink" viewBox="0 0 33.73 29.55">
  <defs>
    <style>
      .cls-1 {
        stroke: #be005f;
        fill: url(#Безымянный_градиент_136);
      }

      .cls-1, .cls-2, .cls-3, .cls-4, .cls-5 {
        stroke-miterlimit: 10;
        stroke-width: 0.25px;
      }

      .cls-2, .cls-3, .cls-4, .cls-5 {
        stroke: #00b487;
      }

      .cls-2 {
        fill: url(#Безымянный_градиент_154);
      }

      .cls-3 {
        fill: url(#Безымянный_градиент_154-2);
      }

      .cls-4 {
        fill: url(#Безымянный_градиент_154-3);
      }

      .cls-5 {
        fill: url(#Безымянный_градиент_154-4);
      }
    </style>
    <linearGradient id="Безымянный_градиент_136" data-name="Безымянный градиент 136" x1="12.01" y1="12.67" x2="12.01" y2="28.14" gradientUnits="userSpaceOnUse">
      <stop offset="0" stop-color="#2c2c36"/>
      <stop offset="1" stop-color="#be005f"/>
    </linearGradient>
    <linearGradient id="Безымянный_градиент_154" data-name="Безымянный градиент 154" x1="18.94" y1="28.09" x2="18.94" y2="6.4" gradientUnits="userSpaceOnUse">
      <stop offset="0" stop-color="#2c2c36"/>
      <stop offset="1" stop-color="#00b487"/>
    </linearGradient>
    <linearGradient id="Безымянный_градиент_154-2" x1="5.07" y1="28.08" x2="5.07" y2="19.23" xlink:href="#Безымянный_градиент_154"/>
    <linearGradient id="Безымянный_градиент_154-3" x1="26.01" y1="28.16" x2="25.75" y2="-0.31" xlink:href="#Безымянный_градиент_154"/>
    <linearGradient id="Безымянный_градиент_154-4" x1="0.18" y1="18.49" x2="33.52" y2="18.49" xlink:href="#Безымянный_градиент_154"/>
  </defs>
  <title>Trust</title>
  <rect class="cls-1" x="9.41" y="12.85" width="5.2" height="15.14"/>
  <rect class="cls-2" x="16.34" y="6.69" width="5.2" height="21.3"/>
  <rect class="cls-3" x="2.47" y="19.42" width="5.2" height="8.57"/>
  <rect class="cls-4" x="23.28" y="0.13" width="5.2" height="27.86"/>
  <polygon class="cls-5" points="30.66 8.23 31.89 9.72 31.08 8.73 13.68 23.11 11.63 20.63 11.64 20.62 10.77 19.57 10.76 19.57 10.74 19.56 9.69 20.43 9.7 20.45 0.18 28.32 1.05 29.37 10.57 21.51 13.45 24.98 13.49 25.04 31.95 9.79 32.36 10.29 33.52 7.61 30.66 8.23"/>
</svg>
